<?xml version="1.0" standalone="no"?>
<!DOCTYPE svg PUBLIC "-//W3C//DTD SVG 20010904//EN"
 "http://www.w3.org/TR/2001/REC-SVG-20010904/DTD/svg10.dtd">
<svg version="1.0" xmlns="http://www.w3.org/2000/svg"
 width="512.000000pt" height="512.000000pt" viewBox="0 0 512.000000 512.000000"
 preserveAspectRatio="xMidYMid meet">
<metadata>
Created by potrace 1.14, written by Peter Selinger 2001-2017
</metadata>
<g transform="translate(0.000000,512.000000) scale(0.100000,-0.100000)"
fill="#000000" stroke="none">
<path d="M2379 5116 c-2 -2 -40 -6 -83 -10 -44 -4 -82 -8 -85 -10 -3 -2 -31
-7 -61 -11 -30 -3 -75 -11 -100 -17 -25 -5 -56 -12 -70 -14 -14 -3 -72 -18
-129 -35 -469 -135 -909 -415 -1221 -779 -64 -74 -76 -89 -143 -180 -208 -280
-367 -643 -436 -995 -40 -200 -46 -267 -45 -515 0 -183 3 -241 19 -345 3 -16
7 -43 9 -60 25 -176 102 -435 187 -625 81 -182 215 -404 325 -540 345 -424
746 -701 1252 -864 97 -31 249 -67 348 -81 22 -4 50 -8 64 -11 144 -26 531
-26 708 1 75 12 90 14 142 25 30 6 66 13 80 16 111 21 368 110 505 175 714
338 1233 981 1409 1746 31 135 36 165 53 318 10 91 10 409 1 505 -9 85 -22
172 -37 245 -6 28 -13 61 -15 75 -55 276 -217 639 -401 900 -414 583 -1032
963 -1735 1065 -19 3 -53 7 -75 11 -44 6 -460 15 -466 10z m506 -1512 c216
-44 381 -202 428 -409 40 -177 -43 -343 -207 -416 -26 -11 -44 -25 -40 -30 3
-5 28 -31 55 -56 149 -139 219 -297 219 -492 0 -354 -264 -639 -645 -696 -191
-29 -394 22 -560 140 -179 127 -308 358 -341 610 -3 28 -8 59 -10 70 -6 29 -5
233 1 280 33 244 86 406 192 580 49 81 69 106 155 193 135 136 320 223 507
239 36 3 67 6 68 8 7 5 115 -8 178 -21z"/>
<path d="M2677 3524 c-1 -1 -20 -4 -42 -7 -317 -44 -552 -254 -680 -607 -48
-135 -76 -303 -76 -456 1 -287 96 -539 259 -684 96 -86 228 -149 347 -165 58
-8 174 -8 207 0 13 2 34 7 48 9 82 14 210 75 284 136 149 123 219 281 212 480
-6 196 -58 280 -311 506 -132 118 -154 141 -205 217 -60 88 -72 144 -44 203
22 46 80 65 119 40 56 -37 81 -151 61 -278 -6 -39 -4 -48 11 -56 30 -16 96
-21 138 -11 161 41 246 172 210 325 -43 186 -201 318 -405 340 -61 6 -130 10
-133 8z m-407 -921 c21 -40 57 -96 78 -125 56 -74 84 -131 90 -184 6 -57 -11
-90 -55 -105 -95 -31 -213 115 -238 296 -15 103 -8 233 14 295 5 14 12 34 16
45 5 15 13 -3 31 -65 14 -47 43 -117 64 -157z"/>
<path d="M2278 2384 c23 -51 45 -84 55 -84 10 0 -41 96 -60 111 -9 8 -7 -1 5
-27z"/>
</g>
</svg>
